<mxfile host="app.diagrams.net" modified="2021-04-29T16:37:45.399Z" agent="5.0 (Windows)" etag="OrgFNu-VweddM6O0XRd2" version="14.1.3" type="github">
  <diagram id="bW-wgFrLxxCaixEAqy1H" name="Page-1">
    <mxGraphModel dx="1037" dy="586" grid="1" gridSize="10" guides="1" tooltips="1" connect="1" arrows="1" fold="1" page="1" pageScale="1" pageWidth="850" pageHeight="1100" math="0" shadow="0">
      <root>
        <mxCell id="0" />
        <mxCell id="1" parent="0" />
        <mxCell id="GYnEhEBrRZXLjHtYIY4x-58" value="" style="whiteSpace=wrap;html=1;aspect=fixed;" vertex="1" parent="1">
          <mxGeometry x="30" y="520" width="320" height="320" as="geometry" />
        </mxCell>
        <mxCell id="GYnEhEBrRZXLjHtYIY4x-57" value="" style="whiteSpace=wrap;html=1;aspect=fixed;" vertex="1" parent="1">
          <mxGeometry x="470" y="520" width="350" height="350" as="geometry" />
        </mxCell>
        <mxCell id="GYnEhEBrRZXLjHtYIY4x-1" value="Home" style="rounded=1;whiteSpace=wrap;html=1;" vertex="1" parent="1">
          <mxGeometry x="340" y="40" width="120" height="60" as="geometry" />
        </mxCell>
        <mxCell id="GYnEhEBrRZXLjHtYIY4x-5" value="Farmer/Consumer" style="rhombus;whiteSpace=wrap;html=1;" vertex="1" parent="1">
          <mxGeometry x="340" y="380" width="120" height="80" as="geometry" />
        </mxCell>
        <mxCell id="GYnEhEBrRZXLjHtYIY4x-6" value="Existing User" style="rhombus;whiteSpace=wrap;html=1;" vertex="1" parent="1">
          <mxGeometry x="340" y="140" width="120" height="80" as="geometry" />
        </mxCell>
        <mxCell id="GYnEhEBrRZXLjHtYIY4x-7" value="Login as" style="rounded=1;whiteSpace=wrap;html=1;" vertex="1" parent="1">
          <mxGeometry x="340" y="280" width="120" height="60" as="geometry" />
        </mxCell>
        <mxCell id="GYnEhEBrRZXLjHtYIY4x-8" value="Create Account" style="rounded=1;whiteSpace=wrap;html=1;" vertex="1" parent="1">
          <mxGeometry x="100" y="220" width="120" height="60" as="geometry" />
        </mxCell>
        <mxCell id="GYnEhEBrRZXLjHtYIY4x-11" value="NO" style="text;html=1;strokeColor=none;fillColor=none;align=center;verticalAlign=middle;whiteSpace=wrap;rounded=0;" vertex="1" parent="1">
          <mxGeometry x="280" y="160" width="40" height="20" as="geometry" />
        </mxCell>
        <mxCell id="GYnEhEBrRZXLjHtYIY4x-16" value="" style="endArrow=classic;html=1;entryX=0.5;entryY=0;entryDx=0;entryDy=0;exitX=0;exitY=0.5;exitDx=0;exitDy=0;" edge="1" parent="1" source="GYnEhEBrRZXLjHtYIY4x-6" target="GYnEhEBrRZXLjHtYIY4x-8">
          <mxGeometry width="50" height="50" relative="1" as="geometry">
            <mxPoint x="160" y="170" as="sourcePoint" />
            <mxPoint x="230" y="140" as="targetPoint" />
            <Array as="points">
              <mxPoint x="160" y="180" />
            </Array>
          </mxGeometry>
        </mxCell>
        <mxCell id="GYnEhEBrRZXLjHtYIY4x-17" value="" style="endArrow=classic;html=1;exitX=0.5;exitY=1;exitDx=0;exitDy=0;entryX=0.5;entryY=0;entryDx=0;entryDy=0;" edge="1" parent="1" source="GYnEhEBrRZXLjHtYIY4x-6" target="GYnEhEBrRZXLjHtYIY4x-7">
          <mxGeometry width="50" height="50" relative="1" as="geometry">
            <mxPoint x="400" y="280" as="sourcePoint" />
            <mxPoint x="500" y="250" as="targetPoint" />
          </mxGeometry>
        </mxCell>
        <mxCell id="GYnEhEBrRZXLjHtYIY4x-18" value="" style="endArrow=classic;html=1;entryX=0.5;entryY=0;entryDx=0;entryDy=0;exitX=0.5;exitY=1;exitDx=0;exitDy=0;" edge="1" parent="1" source="GYnEhEBrRZXLjHtYIY4x-1" target="GYnEhEBrRZXLjHtYIY4x-6">
          <mxGeometry width="50" height="50" relative="1" as="geometry">
            <mxPoint x="410" y="100" as="sourcePoint" />
            <mxPoint x="399.5" y="160" as="targetPoint" />
          </mxGeometry>
        </mxCell>
        <mxCell id="GYnEhEBrRZXLjHtYIY4x-19" value="" style="endArrow=classic;html=1;entryX=0;entryY=0.5;entryDx=0;entryDy=0;exitX=0.5;exitY=1;exitDx=0;exitDy=0;" edge="1" parent="1" source="GYnEhEBrRZXLjHtYIY4x-8" target="GYnEhEBrRZXLjHtYIY4x-7">
          <mxGeometry width="50" height="50" relative="1" as="geometry">
            <mxPoint x="160" y="310" as="sourcePoint" />
            <mxPoint x="270" y="285" as="targetPoint" />
            <Array as="points">
              <mxPoint x="160" y="310" />
            </Array>
          </mxGeometry>
        </mxCell>
        <mxCell id="GYnEhEBrRZXLjHtYIY4x-20" value="Yes" style="text;html=1;strokeColor=none;fillColor=none;align=center;verticalAlign=middle;whiteSpace=wrap;rounded=0;" vertex="1" parent="1">
          <mxGeometry x="400" y="240" width="40" height="20" as="geometry" />
        </mxCell>
        <mxCell id="GYnEhEBrRZXLjHtYIY4x-21" value="" style="endArrow=classic;html=1;exitX=0.5;exitY=1;exitDx=0;exitDy=0;" edge="1" parent="1" source="GYnEhEBrRZXLjHtYIY4x-7" target="GYnEhEBrRZXLjHtYIY4x-5">
          <mxGeometry width="50" height="50" relative="1" as="geometry">
            <mxPoint x="400" y="370" as="sourcePoint" />
            <mxPoint x="450" y="320" as="targetPoint" />
          </mxGeometry>
        </mxCell>
        <mxCell id="GYnEhEBrRZXLjHtYIY4x-22" value="" style="endArrow=classic;html=1;entryX=0.5;entryY=0;entryDx=0;entryDy=0;exitX=0;exitY=0.5;exitDx=0;exitDy=0;" edge="1" parent="1" source="GYnEhEBrRZXLjHtYIY4x-5">
          <mxGeometry width="50" height="50" relative="1" as="geometry">
            <mxPoint x="400" y="370" as="sourcePoint" />
            <mxPoint x="180" y="520" as="targetPoint" />
            <Array as="points">
              <mxPoint x="180" y="420" />
            </Array>
          </mxGeometry>
        </mxCell>
        <mxCell id="GYnEhEBrRZXLjHtYIY4x-23" value="" style="endArrow=classic;html=1;entryX=0.5;entryY=0;entryDx=0;entryDy=0;exitX=1;exitY=0.5;exitDx=0;exitDy=0;" edge="1" parent="1" source="GYnEhEBrRZXLjHtYIY4x-5">
          <mxGeometry width="50" height="50" relative="1" as="geometry">
            <mxPoint x="690" y="390" as="sourcePoint" />
            <mxPoint x="610" y="510" as="targetPoint" />
            <Array as="points">
              <mxPoint x="610" y="420" />
            </Array>
          </mxGeometry>
        </mxCell>
        <mxCell id="GYnEhEBrRZXLjHtYIY4x-37" value="Consumet" style="text;html=1;strokeColor=none;fillColor=none;align=center;verticalAlign=middle;whiteSpace=wrap;rounded=0;" vertex="1" parent="1">
          <mxGeometry x="260" y="390" width="40" height="20" as="geometry" />
        </mxCell>
        <mxCell id="GYnEhEBrRZXLjHtYIY4x-38" value="Farmer" style="text;html=1;strokeColor=none;fillColor=none;align=center;verticalAlign=middle;whiteSpace=wrap;rounded=0;" vertex="1" parent="1">
          <mxGeometry x="490" y="390" width="40" height="20" as="geometry" />
        </mxCell>
        <mxCell id="GYnEhEBrRZXLjHtYIY4x-39" value="My Wishlist" style="whiteSpace=wrap;html=1;aspect=fixed;" vertex="1" parent="1">
          <mxGeometry x="60" y="655" width="80" height="80" as="geometry" />
        </mxCell>
        <mxCell id="GYnEhEBrRZXLjHtYIY4x-40" value="consumer" style="shape=umlActor;verticalLabelPosition=bottom;verticalAlign=top;html=1;outlineConnect=0;" vertex="1" parent="1">
          <mxGeometry x="165" y="530" width="30" height="60" as="geometry" />
        </mxCell>
        <mxCell id="GYnEhEBrRZXLjHtYIY4x-41" value="Farmer" style="shape=umlActor;verticalLabelPosition=bottom;verticalAlign=top;html=1;outlineConnect=0;" vertex="1" parent="1">
          <mxGeometry x="600" y="520" width="30" height="60" as="geometry" />
        </mxCell>
        <mxCell id="GYnEhEBrRZXLjHtYIY4x-46" value="Product" style="swimlane;fontStyle=0;childLayout=stackLayout;horizontal=1;startSize=26;fillColor=none;horizontalStack=0;resizeParent=1;resizeParentMax=0;resizeLast=0;collapsible=1;marginBottom=0;" vertex="1" collapsed="1" parent="1">
          <mxGeometry x="370" y="640" width="70" height="26" as="geometry">
            <mxRectangle x="370" y="640" width="140" height="260" as="alternateBounds" />
          </mxGeometry>
        </mxCell>
        <mxCell id="GYnEhEBrRZXLjHtYIY4x-48" value="Name" style="text;strokeColor=none;fillColor=none;align=left;verticalAlign=top;spacingLeft=4;spacingRight=4;overflow=hidden;rotatable=0;points=[[0,0.5],[1,0.5]];portConstraint=eastwest;" vertex="1" parent="GYnEhEBrRZXLjHtYIY4x-46">
          <mxGeometry y="26" width="70" height="26" as="geometry" />
        </mxCell>
        <mxCell id="GYnEhEBrRZXLjHtYIY4x-49" value="Description" style="text;strokeColor=none;fillColor=none;align=left;verticalAlign=top;spacingLeft=4;spacingRight=4;overflow=hidden;rotatable=0;points=[[0,0.5],[1,0.5]];portConstraint=eastwest;" vertex="1" parent="GYnEhEBrRZXLjHtYIY4x-46">
          <mxGeometry y="52" width="70" height="26" as="geometry" />
        </mxCell>
        <mxCell id="GYnEhEBrRZXLjHtYIY4x-50" value="Price" style="text;strokeColor=none;fillColor=none;align=left;verticalAlign=top;spacingLeft=4;spacingRight=4;overflow=hidden;rotatable=0;points=[[0,0.5],[1,0.5]];portConstraint=eastwest;" vertex="1" parent="GYnEhEBrRZXLjHtYIY4x-46">
          <mxGeometry y="78" width="70" height="26" as="geometry" />
        </mxCell>
        <mxCell id="GYnEhEBrRZXLjHtYIY4x-53" value="Producet" style="text;strokeColor=none;fillColor=none;align=left;verticalAlign=top;spacingLeft=4;spacingRight=4;overflow=hidden;rotatable=0;points=[[0,0.5],[1,0.5]];portConstraint=eastwest;" vertex="1" parent="GYnEhEBrRZXLjHtYIY4x-46">
          <mxGeometry y="104" width="70" height="26" as="geometry" />
        </mxCell>
        <mxCell id="GYnEhEBrRZXLjHtYIY4x-51" value="Images " style="text;strokeColor=none;fillColor=none;align=left;verticalAlign=top;spacingLeft=4;spacingRight=4;overflow=hidden;rotatable=0;points=[[0,0.5],[1,0.5]];portConstraint=eastwest;" vertex="1" parent="GYnEhEBrRZXLjHtYIY4x-46">
          <mxGeometry y="130" width="70" height="26" as="geometry" />
        </mxCell>
        <mxCell id="GYnEhEBrRZXLjHtYIY4x-52" value="Type" style="text;strokeColor=none;fillColor=none;align=left;verticalAlign=top;spacingLeft=4;spacingRight=4;overflow=hidden;rotatable=0;points=[[0,0.5],[1,0.5]];portConstraint=eastwest;" vertex="1" parent="GYnEhEBrRZXLjHtYIY4x-46">
          <mxGeometry y="156" width="70" height="26" as="geometry" />
        </mxCell>
        <mxCell id="GYnEhEBrRZXLjHtYIY4x-54" value="Stutus" style="text;strokeColor=none;fillColor=none;align=left;verticalAlign=top;spacingLeft=4;spacingRight=4;overflow=hidden;rotatable=0;points=[[0,0.5],[1,0.5]];portConstraint=eastwest;" vertex="1" parent="GYnEhEBrRZXLjHtYIY4x-46">
          <mxGeometry y="182" width="70" height="26" as="geometry" />
        </mxCell>
        <mxCell id="GYnEhEBrRZXLjHtYIY4x-67" value="Producet" style="text;strokeColor=none;fillColor=none;align=left;verticalAlign=top;spacingLeft=4;spacingRight=4;overflow=hidden;rotatable=0;points=[[0,0.5],[1,0.5]];portConstraint=eastwest;" vertex="1" parent="GYnEhEBrRZXLjHtYIY4x-46">
          <mxGeometry y="208" width="70" height="26" as="geometry" />
        </mxCell>
        <mxCell id="GYnEhEBrRZXLjHtYIY4x-68" value="Othet Data" style="text;strokeColor=none;fillColor=none;align=left;verticalAlign=top;spacingLeft=4;spacingRight=4;overflow=hidden;rotatable=0;points=[[0,0.5],[1,0.5]];portConstraint=eastwest;" vertex="1" parent="GYnEhEBrRZXLjHtYIY4x-46">
          <mxGeometry y="234" width="70" height="26" as="geometry" />
        </mxCell>
        <mxCell id="GYnEhEBrRZXLjHtYIY4x-55" value="&lt;div align=&quot;left&quot;&gt;My Products&lt;/div&gt;" style="whiteSpace=wrap;html=1;aspect=fixed;align=left;" vertex="1" parent="1">
          <mxGeometry x="640" y="610" width="170" height="170" as="geometry" />
        </mxCell>
        <mxCell id="GYnEhEBrRZXLjHtYIY4x-56" value="Add Products" style="whiteSpace=wrap;html=1;aspect=fixed;" vertex="1" parent="1">
          <mxGeometry x="722.5" y="620" width="70" height="70" as="geometry" />
        </mxCell>
        <mxCell id="GYnEhEBrRZXLjHtYIY4x-60" value="" style="endArrow=none;html=1;exitX=0.5;exitY=0.5;exitDx=0;exitDy=0;exitPerimeter=0;entryX=0.25;entryY=0;entryDx=0;entryDy=0;" edge="1" parent="1" source="GYnEhEBrRZXLjHtYIY4x-40" target="GYnEhEBrRZXLjHtYIY4x-46">
          <mxGeometry width="50" height="50" relative="1" as="geometry">
            <mxPoint x="350" y="750" as="sourcePoint" />
            <mxPoint x="400" y="700" as="targetPoint" />
            <Array as="points">
              <mxPoint x="388" y="560" />
            </Array>
          </mxGeometry>
        </mxCell>
        <mxCell id="GYnEhEBrRZXLjHtYIY4x-61" value="" style="endArrow=none;html=1;entryX=0.5;entryY=0.5;entryDx=0;entryDy=0;entryPerimeter=0;" edge="1" parent="1" target="GYnEhEBrRZXLjHtYIY4x-41">
          <mxGeometry width="50" height="50" relative="1" as="geometry">
            <mxPoint x="420" y="640" as="sourcePoint" />
            <mxPoint x="400" y="700" as="targetPoint" />
            <Array as="points">
              <mxPoint x="420" y="550" />
            </Array>
          </mxGeometry>
        </mxCell>
        <mxCell id="GYnEhEBrRZXLjHtYIY4x-62" value="Update Products" style="whiteSpace=wrap;html=1;aspect=fixed;" vertex="1" parent="1">
          <mxGeometry x="722.5" y="700" width="70" height="70" as="geometry" />
        </mxCell>
        <mxCell id="GYnEhEBrRZXLjHtYIY4x-64" style="edgeStyle=orthogonalEdgeStyle;rounded=0;orthogonalLoop=1;jettySize=auto;html=1;exitX=0.5;exitY=1;exitDx=0;exitDy=0;" edge="1" parent="1" source="GYnEhEBrRZXLjHtYIY4x-57" target="GYnEhEBrRZXLjHtYIY4x-57">
          <mxGeometry relative="1" as="geometry" />
        </mxCell>
        <mxCell id="GYnEhEBrRZXLjHtYIY4x-65" value="My Connections" style="whiteSpace=wrap;html=1;aspect=fixed;" vertex="1" parent="1">
          <mxGeometry x="530" y="650" width="80" height="80" as="geometry" />
        </mxCell>
        <mxCell id="GYnEhEBrRZXLjHtYIY4x-66" value="My Connections" style="whiteSpace=wrap;html=1;aspect=fixed;" vertex="1" parent="1">
          <mxGeometry x="165" y="655" width="80" height="80" as="geometry" />
        </mxCell>
      </root>
    </mxGraphModel>
  </diagram>
</mxfile>
